<?xml version="1.0" encoding="UTF-8"?><svg id="katman_1" xmlns="http://www.w3.org/2000/svg" xmlns:xlink="http://www.w3.org/1999/xlink" viewBox="0 0 1080 1080"><defs><style>.cls-1{fill:url(#Adsız_degrade_365);}.cls-1,.cls-2,.cls-3,.cls-4{stroke-width:0px;}.cls-3{fill:url(#Adsız_degrade_365-3);}.cls-4{fill:url(#Adsız_degrade_365-2);}</style><linearGradient id="Adsız_degrade_365" x1="228.53" y1="568.45" x2="284.15" y2="515.51" gradientUnits="userSpaceOnUse"><stop offset="0" stop-color="#024eff"/><stop offset="1" stop-color="#3ce844"/></linearGradient><linearGradient id="Adsız_degrade_365-2" x1="205.79" y1="544.57" x2="261.41" y2="491.62" xlink:href="#Adsız_degrade_365"/><linearGradient id="Adsız_degrade_365-3" x1="244.9" y1="585.65" x2="300.52" y2="532.71" xlink:href="#Adsız_degrade_365"/></defs><path class="cls-2" d="m369.24,551.98c4.5-1.83,8.01-4.57,10.51-8.24,2.5-3.66,3.75-8.34,3.75-14.04v-1.69c0-5.63-1.23-10.31-3.7-14.04-2.46-3.73-5.96-6.51-10.5-8.34-4.54-1.83-9.91-2.75-16.1-2.75h-28.61v77.6h14.99v-25.76h13.62c.11,0,.22,0,.33,0l18.15,25.77h17.53l-20.55-28.28c.2-.08.4-.14.59-.22Zm-29.67-36.32h15.2c2.75,0,5.12.56,7.13,1.69,2.01,1.13,3.57,2.71,4.7,4.75,1.12,2.04,1.69,4.4,1.69,7.07s-.56,4.93-1.69,6.97c-1.13,2.04-2.69,3.63-4.7,4.75-2.01,1.13-4.38,1.69-7.13,1.69h-15.2v-26.92Z"/><path class="cls-2" d="m433.91,524.64c-3.91-1.55-8.82-2.32-14.73-2.32-1.9,0-3.92.02-6.07.05-2.15.04-4.24.12-6.28.26-2.04.14-3.87.28-5.49.42v12.46c1.97-.14,4.21-.26,6.7-.37,2.5-.11,4.98-.19,7.44-.26,2.46-.07,4.57-.11,6.33-.11,3.38,0,5.88.81,7.5,2.43,1.62,1.62,2.43,4.08,2.43,7.39v.53h-11.72c-5.07,0-9.49.67-13.25,2.01-3.77,1.34-6.69,3.34-8.76,6.02-2.08,2.68-3.11,6.12-3.11,10.35,0,3.87.86,7.18,2.59,9.92,1.72,2.75,4.15,4.86,7.28,6.33,3.13,1.48,6.77,2.22,10.93,2.22s7.41-.72,10.19-2.17c2.78-1.44,4.96-3.54,6.55-6.28.71-1.22,1.28-2.58,1.74-4.05v11.02h11.61v-35.58c0-5.35-1-9.68-3.01-12.99s-4.96-5.74-8.87-7.29Zm-8.45,45.77c-1.73.74-3.61,1.11-5.65,1.11-3.38,0-5.96-.81-7.76-2.43-1.79-1.62-2.69-3.73-2.69-6.33s.9-4.73,2.69-6.39c1.8-1.65,4.38-2.48,7.76-2.48h11.93v5.38c-.14,3.1-.79,5.54-1.95,7.34-1.16,1.79-2.6,3.06-4.33,3.8Z"/><polygon class="cls-2" points="513.57 523.16 498.26 523.16 476.19 550.77 476.19 503.42 461.52 503.42 461.52 580.49 476.19 580.49 476.19 553.67 482.42 553.67 501.64 580.49 518.21 580.49 494.07 547.6 513.57 523.16"/><path class="cls-2" d="m561.81,556.94c0,3.73-1.07,6.69-3.22,8.87-2.15,2.18-4.91,3.27-8.29,3.27s-6.05-1.04-8.02-3.11c-1.97-2.07-2.96-4.87-2.96-8.39v-34.52h-14.68v33.26c0,8.59,1.81,15.06,5.44,19.43,3.62,4.36,8.74,6.55,15.36,6.55h.63c4.43,0,8.13-.99,11.08-2.96,2.96-1.97,5.17-4.89,6.65-8.76.41-1.08.76-2.23,1.06-3.46v13.38h11.61v-57.43h-14.68v33.89Z"/><path class="cls-2" d="m609.96,528.76c-2.66,3.19-4.31,7.54-4.96,13.03v-18.62h-11.61v57.33h14.68v-29.88c0-5,1.35-8.82,4.06-11.45,2.71-2.64,6.53-3.96,11.46-3.96h4.01v-12.77h-2.11c-6.83,0-12,2.11-15.52,6.33Z"/><path class="cls-2" d="m671.56,524.64c-3.91-1.55-8.82-2.32-14.73-2.32-1.9,0-3.92.02-6.07.05-2.15.04-4.24.12-6.28.26-2.04.14-3.87.28-5.49.42v12.46c1.97-.14,4.2-.26,6.7-.37,2.5-.11,4.98-.19,7.44-.26,2.46-.07,4.57-.11,6.33-.11,3.38,0,5.88.81,7.5,2.43,1.62,1.62,2.43,4.08,2.43,7.39v.53h-11.72c-5.07,0-9.48.67-13.25,2.01-3.77,1.34-6.69,3.34-8.76,6.02-2.08,2.68-3.12,6.12-3.12,10.35,0,3.87.86,7.18,2.59,9.92,1.72,2.75,4.15,4.86,7.29,6.33,3.13,1.48,6.77,2.22,10.93,2.22s7.41-.72,10.19-2.17c2.78-1.44,4.96-3.54,6.55-6.28.7-1.22,1.28-2.58,1.74-4.05v11.02h11.61v-35.58c0-5.35-1-9.68-3.01-12.99-2.01-3.31-4.96-5.74-8.87-7.29Zm-8.45,45.77c-1.73.74-3.61,1.11-5.65,1.11-3.38,0-5.96-.81-7.76-2.43-1.8-1.62-2.69-3.73-2.69-6.33s.9-4.73,2.69-6.39c1.8-1.65,4.38-2.48,7.76-2.48h11.93v5.38c-.14,3.1-.79,5.54-1.95,7.34-1.16,1.79-2.6,3.06-4.33,3.8Z"/><polygon class="cls-2" points="693.89 523.16 693.89 534.14 701.91 534.14 701.91 580.49 716.59 580.49 716.59 534.14 716.59 523.16 701.91 523.16 693.89 523.16"/><path class="cls-2" d="m706.35,513.45c2.88,0,4.96-.77,6.23-2.32,1.27-1.55,1.9-3.45,1.9-5.7s-.63-4.13-1.9-5.65c-1.27-1.51-3.34-2.27-6.23-2.27s-4.88.76-6.18,2.27c-1.3,1.52-1.95,3.4-1.95,5.65s.65,4.15,1.95,5.7c1.3,1.55,3.36,2.32,6.18,2.32Z"/><rect class="cls-2" x="731.16" y="563.6" width="16.47" height="16.89"/><path class="cls-2" d="m769.06,513.45c2.88,0,4.96-.77,6.23-2.32,1.27-1.55,1.9-3.45,1.9-5.7s-.63-4.13-1.9-5.65c-1.27-1.51-3.34-2.27-6.23-2.27s-4.87.76-6.18,2.27c-1.3,1.52-1.95,3.4-1.95,5.65s.65,4.15,1.95,5.7c1.3,1.55,3.36,2.32,6.18,2.32Z"/><polygon class="cls-2" points="756.6 523.16 756.6 534.14 764.63 534.14 764.63 580.49 779.3 580.49 779.3 534.14 779.3 523.16 764.63 523.16 756.6 523.16"/><path class="cls-2" d="m852.89,539.58c-1.41-3.55-3.47-6.72-6.18-9.5-2.71-2.78-6-4.96-9.87-6.55-3.87-1.58-8.23-2.38-13.09-2.38s-9.22.79-13.09,2.38c-3.87,1.58-7.16,3.77-9.87,6.55-2.71,2.78-4.79,5.95-6.23,9.5-1.44,3.56-2.16,7.3-2.16,11.24v2.22c0,3.8.69,7.46,2.06,10.98,1.37,3.52,3.4,6.67,6.07,9.45,2.67,2.78,5.95,4.98,9.82,6.6,3.87,1.62,8.34,2.43,13.41,2.43s9.43-.81,13.3-2.43c3.87-1.62,7.14-3.82,9.82-6.6,2.67-2.78,4.7-5.93,6.07-9.45,1.37-3.52,2.06-7.18,2.06-10.98v-2.22c0-3.94-.7-7.69-2.11-11.24Zm-14.46,21.54c-1.27,2.71-3.13,4.86-5.6,6.44-2.46,1.58-5.49,2.38-9.08,2.38s-6.62-.79-9.08-2.38c-2.46-1.58-4.35-3.73-5.65-6.44-1.3-2.71-1.95-5.79-1.95-9.24s.67-6.63,2.01-9.34c1.34-2.71,3.25-4.86,5.75-6.44,2.5-1.58,5.47-2.38,8.92-2.38s6.42.79,8.92,2.38c2.5,1.58,4.4,3.73,5.7,6.44,1.3,2.71,1.95,5.83,1.95,9.34s-.63,6.53-1.9,9.24Z"/><polygon class="cls-1" points="254.08 548.19 240.59 580.59 225 580.59 225 548.19 254.08 548.19"/><polygon class="cls-4" points="268.29 508.3 225 548.19 225 502.89 274.16 502.89 268.29 508.3"/><path class="cls-3" d="m307.91,580.59h-67.32l5.52-5.08,43.3-39.9-29.1-.03,13.85-32.69h5.96c21.77,0,32.2,26.73,16.19,41.48l-13.85,12.77-.02.02,25.47,23.45Z"/></svg>